<svg width="102" height="102" viewBox="0 0 102 102" fill="none" xmlns="http://www.w3.org/2000/svg">
<circle cx="51" cy="51" r="51" fill="#D9D9D9"/>
<rect x="18" y="30" width="65.6914" height="40.8824" rx="5" fill="white"/>
<circle cx="30.5791" cy="41.8804" r="8.21143" fill="#D9D9D9"/>
<rect x="44.2065" y="35.9402" width="32.4963" height="2.09653" rx="1.04827" fill="#D9D9D9"/>
<rect x="44.2065" y="44.1516" width="13.2781" height="2.09653" rx="1.04827" fill="#D9D9D9"/>
<rect x="44.2065" y="49.3929" width="13.2781" height="2.09653" rx="1.04827" fill="#D9D9D9"/>
<rect x="44.2065" y="54.6343" width="13.2781" height="2.09653" rx="1.04827" fill="#D9D9D9"/>
<rect x="60.4546" y="44.1516" width="13.2781" height="2.09653" rx="1.04827" fill="#D9D9D9"/>
<rect x="60.4546" y="49.3929" width="13.2781" height="2.09653" rx="1.04827" fill="#D9D9D9"/>
<rect x="60.4546" y="54.6343" width="13.2781" height="2.09653" rx="1.04827" fill="#D9D9D9"/>
<rect x="60.4546" y="65.1169" width="19.5677" height="2.09653" rx="1.04827" fill="#D9D9D9"/>
<path d="M83.9794 56.8393C83.9794 64.2895 77.9399 70.329 70.4897 70.329C63.0395 70.329 57 64.2895 57 56.8393C57 49.3892 63.0395 43.3496 70.4897 43.3496C77.9399 43.3496 83.9794 49.3892 83.9794 56.8393Z" fill="white" fill-opacity="0.5"/>
<path fill-rule="evenodd" clip-rule="evenodd" d="M70.4897 67.229C76.2278 67.229 80.8794 62.5774 80.8794 56.8393C80.8794 51.1012 76.2278 46.4496 70.4897 46.4496C64.7516 46.4496 60.1 51.1012 60.1 56.8393C60.1 62.5774 64.7516 67.229 70.4897 67.229ZM70.4897 70.329C77.9399 70.329 83.9794 64.2895 83.9794 56.8393C83.9794 49.3892 77.9399 43.3496 70.4897 43.3496C63.0395 43.3496 57 49.3892 57 56.8393C57 64.2895 63.0395 70.329 70.4897 70.329Z" fill="#808080"/>
<path fill-rule="evenodd" clip-rule="evenodd" d="M79.0002 63.9189C79.6055 63.3136 80.5869 63.3136 81.1922 63.9189L89.7766 72.5033C90.3819 73.1086 90.3819 74.09 89.7766 74.6953C89.1713 75.3006 88.1898 75.3006 87.5845 74.6953L79.0002 66.1109C78.3949 65.5056 78.3949 64.5242 79.0002 63.9189Z" fill="#808080"/>
<path fill-rule="evenodd" clip-rule="evenodd" d="M74.3509 51.9762C75.005 52.5285 75.0874 53.5064 74.5351 54.1604L68.6165 61.1693C68.0642 61.8234 67.0863 61.9059 66.4322 61.3536C65.7782 60.8013 65.6957 59.8233 66.248 59.1693L72.1666 52.1604C72.7189 51.5063 73.6969 51.4239 74.3509 51.9762Z" fill="#808080"/>
<path fill-rule="evenodd" clip-rule="evenodd" d="M74.3426 61.3535C74.9967 60.8012 75.0791 59.8233 74.5268 59.1693L68.6082 52.1604C68.0559 51.5063 67.078 51.4239 66.4239 51.9762C65.7699 52.5285 65.6874 53.5064 66.2397 54.1604L72.1583 61.1693C72.7106 61.8234 73.6886 61.9058 74.3426 61.3535Z" fill="#808080"/>
</svg>
