<svg width="48" height="48" viewBox="0 0 48 48" fill="none" xmlns="http://www.w3.org/2000/svg">
<rect width="48" height="48" rx="12" fill="#107DD8" fill-opacity="0.4"/>
<path d="M24 38C31.732 38 38 31.732 38 24C38 16.268 31.732 10 24 10C16.268 10 10 16.268 10 24C10 31.732 16.268 38 24 38Z" fill="url(#paint0_linear_4523_4202)"/>
<path fill-rule="evenodd" clip-rule="evenodd" d="M31.4907 23.6144C31.8641 23.7603 32.0485 24.1812 31.9027 24.5546C31.6865 25.108 31.3043 25.5809 30.8086 25.9083C30.3162 26.2336 29.7359 26.3995 29.1462 26.3838C28.0736 26.3825 27.3669 25.9407 26.9382 25.4565C26.7311 25.2227 26.5975 24.9894 26.5146 24.8126C26.4729 24.7237 26.4431 24.647 26.4228 24.589C26.4127 24.5599 26.4048 24.5353 26.3989 24.5159C26.396 24.5061 26.3935 24.4977 26.3915 24.4906L26.3889 24.481L26.3878 24.477L26.3874 24.4752L26.3871 24.4743C26.387 24.4739 26.3869 24.4735 27.0893 24.2905L26.3869 24.4735C26.2858 24.0856 26.5183 23.6892 26.9063 23.5881C27.2907 23.4879 27.6836 23.7154 27.7889 24.0972C27.7896 24.0992 27.7909 24.1034 27.7931 24.1097C27.799 24.1266 27.8105 24.1571 27.829 24.1965C27.8666 24.2766 27.929 24.3857 28.025 24.4941C28.2008 24.6927 28.5242 24.9332 29.1553 24.9321C29.1631 24.9321 29.171 24.9322 29.1788 24.9325C29.473 24.9415 29.7628 24.8593 30.0084 24.6971C30.254 24.5348 30.4434 24.3005 30.5505 24.0264C30.6964 23.653 31.1173 23.4685 31.4907 23.6144Z" fill="black"/>
<path fill-rule="evenodd" clip-rule="evenodd" d="M21.1727 23.6142C21.5463 23.7597 21.7311 24.1805 21.5855 24.554C21.37 25.1072 20.9884 25.5802 20.4932 25.9077C20.0013 26.2331 19.4213 26.3993 18.8319 26.3838C17.7592 26.3825 17.0525 25.9407 16.6237 25.4565C16.4167 25.2227 16.283 24.9894 16.2001 24.8126C16.1584 24.7237 16.1287 24.647 16.1084 24.589C16.0982 24.5599 16.0903 24.5353 16.0845 24.5159C16.0815 24.5061 16.0791 24.4977 16.0771 24.4906L16.0745 24.481L16.0734 24.477L16.0729 24.4752L16.0727 24.4743C16.0726 24.4739 16.0725 24.4735 16.7748 24.2905L16.0725 24.4735C15.9714 24.0856 16.2039 23.6892 16.5918 23.5881C16.9763 23.4879 17.3691 23.7154 17.4745 24.0972C17.4751 24.0992 17.4765 24.1034 17.4787 24.1097C17.4846 24.1266 17.4961 24.1571 17.5146 24.1965C17.5521 24.2766 17.6146 24.3857 17.7106 24.4941C17.8864 24.6927 18.2098 24.9332 18.8408 24.9321C18.8486 24.9321 18.8563 24.9322 18.8641 24.9325C19.1578 24.9414 19.4471 24.8591 19.6922 24.697C19.9373 24.5349 20.1262 24.3008 20.2329 24.027C20.3784 23.6535 20.7992 23.4686 21.1727 23.6142Z" fill="black"/>
<path fill-rule="evenodd" clip-rule="evenodd" d="M21.3169 32.3116C21.0712 32.5157 20.7064 32.483 20.5009 32.2379C20.2949 31.9922 20.3271 31.6259 20.5729 31.4199L20.9408 31.8588C20.5729 31.4199 20.5732 31.4197 20.5734 31.4194L20.574 31.4189L20.5754 31.4178L20.5789 31.4149L20.5888 31.4069C20.5966 31.4005 20.607 31.3923 20.62 31.3822C20.6458 31.3622 20.6817 31.3352 20.7273 31.3029C20.8185 31.2383 20.9488 31.1521 21.1152 31.0575C21.4474 30.8688 21.9279 30.6442 22.5306 30.4946C23.7508 30.1916 25.4363 30.2058 27.3451 31.369C27.619 31.5359 27.7057 31.8932 27.5388 32.1671C27.372 32.4409 27.0147 32.5276 26.7408 32.3608C25.1192 31.3726 23.7562 31.3868 22.8105 31.6217C22.3302 31.7409 21.9484 31.9198 21.689 32.0672C21.5596 32.1407 21.4619 32.2058 21.3989 32.2504C21.3674 32.2727 21.3447 32.2898 21.3312 32.3003C21.3245 32.3055 21.3201 32.309 21.318 32.3107C21.3175 32.3111 21.3171 32.3114 21.3169 32.3116Z" fill="#5B0600"/>
<defs>
<linearGradient id="paint0_linear_4523_4202" x1="11.8727" y1="31" x2="36.1273" y2="16.9971" gradientUnits="userSpaceOnUse">
<stop stop-color="#EBB34D"/>
<stop offset="0.03" stop-color="#ECB64D"/>
<stop offset="0.18" stop-color="#EEC04F"/>
<stop offset="0.55" stop-color="#F1CC51"/>
<stop offset="1" stop-color="#F3D652"/>
</linearGradient>
</defs>
</svg>
