<svg width="300" height="194" viewBox="0 0 300 194" fill="none" xmlns="http://www.w3.org/2000/svg">
<path d="M300 166.469H0V166.619H300V166.469Z" fill="#EBEBEB"/>
<path d="M51.3476 172.182H31.4756V172.332H51.3476V172.182Z" fill="#EBEBEB"/>
<path d="M107.898 170.556H87.1982V170.706H107.898V170.556Z" fill="#EBEBEB"/>
<path d="M78.8999 175.08H45.6479V175.23H78.8999V175.08Z" fill="#EBEBEB"/>
<path d="M269.298 175.632H243.384V175.782H269.298V175.632Z" fill="#EBEBEB"/>
<path d="M235.998 171.882H222.258V172.032H235.998V171.882Z" fill="#EBEBEB"/>
<path d="M173.586 174.288H117.378V174.438H173.586V174.288Z" fill="#EBEBEB"/>
<path d="M121.644 164.61H89.1602V166.47H121.644V164.61Z" fill="#E0E0E0"/>
<path d="M102.48 123.984L93.48 164.61H117.27L108.27 123.984C108.097 123.349 107.72 122.788 107.197 122.388C106.674 121.988 106.034 121.771 105.375 121.771C104.716 121.771 104.076 121.988 103.553 122.388C103.03 122.788 102.653 123.349 102.48 123.984Z" fill="#E0E0E0"/>
<path d="M110.106 132.048H100.698L98.4238 142.344H112.38L110.106 132.048Z" fill="#F5F5F5"/>
<path d="M112.776 144.156H98.0281L96.8701 149.37H113.928L112.776 144.156Z" fill="#F5F5F5"/>
<path d="M43.5122 166.469H48.3362L62.5442 87.0293H57.7142L43.5122 166.469Z" fill="#E0E0E0"/>
<path d="M169.89 166.469H174.72L188.928 87.0293H184.098L169.89 166.469Z" fill="#E0E0E0"/>
<path d="M203.136 90.8999H43.5122V119.772H203.136V90.8999Z" fill="#EBEBEB"/>
<path d="M60.8156 118.494H44.2676L53.4476 92.1719H69.9956L60.8156 118.494Z" fill="#FAFAFA"/>
<path d="M93.9118 118.494H77.3638L86.5438 92.1719H103.086L93.9118 118.494Z" fill="#FAFAFA"/>
<path d="M127.007 118.494H110.459L119.633 92.1719H136.181L127.007 118.494Z" fill="#FAFAFA"/>
<path d="M160.098 118.494H143.55L152.73 92.1719H169.278L160.098 118.494Z" fill="#FAFAFA"/>
<path d="M193.194 118.494H176.646L185.826 92.1719H202.374L193.194 118.494Z" fill="#FAFAFA"/>
<path d="M76.7523 166.469H71.9224L57.7144 87.0293H62.5444L76.7523 166.469Z" fill="#E0E0E0"/>
<path d="M203.13 166.469H198.306L184.098 87.0293H188.928L203.13 166.469Z" fill="#E0E0E0"/>
<path d="M268.2 164.028H225.6V166.47H268.2V164.028Z" fill="#E0E0E0"/>
<path d="M242.79 112.02L231.3 164.028H262.5L251.01 112.02C250.038 107.622 243.762 107.622 242.79 112.02Z" fill="#E0E0E0"/>
<path d="M253.068 121.332H240.732L237.75 134.832H256.05L253.068 121.332Z" fill="#F5F5F5"/>
<path d="M256.572 137.208H237.228L235.716 144.042H258.084L256.572 137.208Z" fill="#F5F5F5"/>
<path d="M277.8 82.1703V99.7503C277.799 100.024 277.734 100.294 277.61 100.537C277.486 100.781 277.306 100.993 277.086 101.154C276.865 101.316 276.609 101.424 276.339 101.469C276.07 101.513 275.793 101.494 275.532 101.412L21.7317 20.9823C21.3825 20.8683 21.0783 20.6467 20.8628 20.3492C20.6472 20.0517 20.5313 19.6936 20.5317 19.3263V1.74028C20.5308 1.46627 20.5947 1.19592 20.7184 0.951407C20.8421 0.70689 21.0219 0.495161 21.2432 0.333578C21.4645 0.171994 21.7209 0.0651564 21.9915 0.0218222C22.2621 -0.0215119 22.5391 -0.000111035 22.7997 0.0842749L276.6 80.4843C276.954 80.5998 277.262 80.826 277.478 81.1295C277.694 81.433 277.807 81.7978 277.8 82.1703Z" fill="#EBEBEB"/>
<path d="M257.826 94.4577L271.8 98.8857L264.048 77.8797L250.08 73.4517L257.826 94.4577Z" fill="#FAFAFA"/>
<path d="M229.884 85.6017L243.858 90.0297L236.106 69.0237L222.138 64.5957L229.884 85.6017Z" fill="#FAFAFA"/>
<path d="M201.942 76.7517L215.916 81.1737L208.164 60.1677L194.19 55.7397L201.942 76.7517Z" fill="#FAFAFA"/>
<path d="M174 67.8898L187.974 72.3238L180.222 51.3118L166.248 46.8838L174 67.8898Z" fill="#FAFAFA"/>
<path d="M146.058 59.0398L160.026 63.4678L152.28 42.4558L138.306 38.0278L146.058 59.0398Z" fill="#FAFAFA"/>
<path d="M118.116 50.1839L132.084 54.6119L124.338 33.5999L110.364 29.1719L118.116 50.1839Z" fill="#FAFAFA"/>
<path d="M90.1679 41.3279L104.142 45.7559L96.3899 24.7439L82.4219 20.3159L90.1679 41.3279Z" fill="#FAFAFA"/>
<path d="M62.226 32.472L76.2 36.9L68.448 15.888L54.48 11.46L62.226 32.472Z" fill="#FAFAFA"/>
<path d="M34.2841 23.616L48.2581 28.044L40.5061 7.032L26.5381 2.604L34.2841 23.616Z" fill="#FAFAFA"/>
<path d="M150 193.566C214.249 193.566 266.334 190.525 266.334 186.774C266.334 183.023 214.249 179.982 150 179.982C85.7505 179.982 33.666 183.023 33.666 186.774C33.666 190.525 85.7505 193.566 150 193.566Z" fill="#F5F5F5"/>
</svg>
