<svg width="100" height="100" viewBox="0 0 100 100" fill="none" xmlns="http://www.w3.org/2000/svg">
<rect width="100" height="100" fill="white"/>
<circle cx="50" cy="50" r="35" fill="#EDEDED"/>
<path fill-rule="evenodd" clip-rule="evenodd" d="M31.1665 34.4165C30.0619 34.4165 29.1665 35.3119 29.1665 36.4165V63.6665C29.1665 64.7711 30.0619 65.6665 31.1665 65.6665H68.8332C69.9377 65.6665 70.8332 64.7711 70.8332 63.6665V36.4165C70.8332 35.3119 69.9377 34.4165 68.8332 34.4165H31.1665ZM53.6458 47.0033C53.6458 45.9965 54.462 45.1804 55.4688 45.1804H63.9757C64.9825 45.1804 65.7986 45.9965 65.7986 47.0033C65.7986 48.0101 64.9825 48.8262 63.9757 48.8262H55.4688C54.462 48.8262 53.6458 48.0101 53.6458 47.0033ZM55.4688 52.4721C54.462 52.4721 53.6458 53.2882 53.6458 54.295C53.6458 55.3017 54.462 56.1179 55.4688 56.1179H63.9757C64.9825 56.1179 65.7986 55.3017 65.7986 54.295C65.7986 53.2882 64.9825 52.4721 63.9757 52.4721H55.4688ZM41.4931 55.8332C44.6917 55.8332 47.2847 53.2402 47.2847 50.0415C47.2847 46.8429 44.6917 44.2498 41.4931 44.2498C38.2944 44.2498 35.7014 46.8429 35.7014 50.0415C35.7014 53.2402 38.2944 55.8332 41.4931 55.8332ZM41.4931 57.3332C45.5201 57.3332 48.7847 54.0686 48.7847 50.0415C48.7847 46.0144 45.5201 42.7498 41.4931 42.7498C37.466 42.7498 34.2014 46.0144 34.2014 50.0415C34.2014 54.0686 37.466 57.3332 41.4931 57.3332ZM41.4931 52.4721C42.8354 52.4721 43.9236 51.3839 43.9236 50.0415C43.9236 48.6991 42.8354 47.6109 41.4931 47.6109C40.1507 47.6109 39.0625 48.6991 39.0625 50.0415C39.0625 51.3839 40.1507 52.4721 41.4931 52.4721Z" fill="white"/>
</svg>
