<svg width="48" height="48" viewBox="0 0 48 48" fill="#107DD8" xmlns="http://www.w3.org/2000/svg">
  <rect width="48" height="48" rx="12" fill="#107DD8" fill-opacity="0.4" />
  <path d="M24 38C31.732 38 38 31.732 38 24C38 16.268 31.732 10 24 10C16.268 10 10 16.268 10 24C10 31.732 16.268 38 24 38Z" fill="url(#paint0_linear_4523_4191)" />
  <path d="M24 38C31.732 38 38 31.732 38 24C38 16.268 31.732 10 24 10C16.268 10 10 16.268 10 24C10 31.732 16.268 38 24 38Z" fill="url(#paint1_linear_4523_4191)" />
  <path fill-rule="evenodd" clip-rule="evenodd" d="M30.8671 23.2996C31.1312 23.1177 31.1978 22.7561 31.0159 22.492C30.834 22.2279 30.4724 22.1613 30.2083 22.3433L26.8114 24.6834C26.5473 24.8653 26.4807 25.2269 26.6626 25.491C26.8445 25.7551 27.2061 25.8217 27.4702 25.6397L27.9855 25.2847C27.9465 25.4914 27.9255 25.7114 27.9255 25.9398C27.9255 27.1417 28.5062 28.1173 29.2524 28.1173C29.9985 28.1173 30.5792 27.1417 30.5792 25.9398C30.5792 25.0917 30.2888 24.3555 29.8547 23.9971L30.8671 23.2996ZM17.4199 22.3434C17.1558 22.1614 16.7942 22.2281 16.6123 22.4922C16.4304 22.7562 16.497 23.1178 16.7611 23.2998L17.9962 24.1506C17.6504 24.5431 17.4238 25.1981 17.4238 25.9398C17.4238 27.1408 18.0179 28.1144 18.7507 28.1144C19.4835 28.1144 20.0775 27.1408 20.0775 25.9398C20.0775 25.8142 20.071 25.6911 20.0585 25.5713L20.158 25.6399C20.4221 25.8218 20.7837 25.7552 20.9656 25.4911C21.1475 25.227 21.0809 24.8654 20.8168 24.6835L17.4199 22.3434ZM20.5041 33.1124C20.2981 32.8667 20.3303 32.5004 20.5761 32.2944L20.944 32.7333C20.5761 32.2944 20.5763 32.2942 20.5766 32.294L20.5772 32.2935L20.5786 32.2923L20.5821 32.2894L20.5919 32.2814C20.5998 32.275 20.6102 32.2668 20.6231 32.2568C20.649 32.2367 20.6849 32.2097 20.7305 32.1774C20.8216 32.1128 20.952 32.0266 21.1184 31.932C21.4506 31.7433 21.931 31.5188 22.5337 31.3691C23.7539 31.0661 25.4394 31.0803 27.3483 32.2436C27.6222 32.4104 27.7089 32.7677 27.542 33.0416C27.3751 33.3154 27.0178 33.4022 26.744 33.2353C25.1224 32.2471 23.7593 32.2614 22.8136 32.4962C22.3334 32.6155 21.9516 32.7943 21.6922 32.9417C21.5628 33.0152 21.465 33.0803 21.402 33.1249C21.3706 33.1472 21.3479 33.1644 21.3344 33.1748L21.3212 33.1852L21.3201 33.1861C21.0743 33.3903 20.7095 33.3575 20.5041 33.1124Z" fill="black" />
  <defs>
    <linearGradient id="paint0_linear_4523_4191" x1="11.8727" y1="31.0029" x2="36.1273" y2="17" gradientUnits="userSpaceOnUse">
      <stop stop-color="#EBB34D" />
      <stop offset="0.03" stop-color="#ECB64D" />
      <stop offset="0.18" stop-color="#EEC04F" />
      <stop offset="0.55" stop-color="#F1CC51" />
      <stop offset="1" stop-color="#F3D652" />
    </linearGradient>
    <linearGradient id="paint1_linear_4523_4191" x1="24" y1="10" x2="24" y2="38.0029" gradientUnits="userSpaceOnUse">
      <stop stop-color="#DD5F70" />
      <stop offset="0.16" stop-color="#DD636F" stop-opacity="0.97" />
      <stop offset="0.45" stop-color="#E48965" stop-opacity="0.64" />
      <stop offset="1" stop-color="#F3D652" stop-opacity="0" />
    </linearGradient>
  </defs>
</svg>