<svg width="48" height="48" viewBox="0 0 48 48" fill="none" xmlns="http://www.w3.org/2000/svg">
  <rect width="48" height="48" rx="12" fill="#107DD8" fill-opacity="0.4" />
  <path d="M34 34C39.5228 28.4772 39.5228 19.5228 34 14C28.4772 8.47715 19.5228 8.47715 14 14C8.47715 19.5228 8.47715 28.4772 14 34C19.5228 39.5228 28.4772 39.5228 34 34Z" fill="url(#paint0_linear_4523_4227)" />
  <path d="M15.9876 24.9903C21.3039 24.2682 26.6934 24.2682 32.0097 24.9903C32.0097 24.9903 32.3029 32.12 24.0001 32.12C15.6972 32.12 15.9876 24.9903 15.9876 24.9903Z" fill="#5B0600" />
  <mask id="mask0_4523_4227" style="mask-type:luminance" maskUnits="userSpaceOnUse" x="15" y="24" width="18" height="9">
    <path d="M15.9876 24.9903C21.3039 24.2682 26.6934 24.2682 32.0097 24.9903C32.0097 24.9903 32.3029 32.12 24.0001 32.12C15.6972 32.12 15.9876 24.9903 15.9876 24.9903Z" fill="white" />
  </mask>
  <g mask="url(#mask0_4523_4227)">
    <path d="M23.9975 35.6306C27.7521 35.6306 30.7958 34.0588 30.7958 32.12C30.7958 30.1811 27.7521 28.6094 23.9975 28.6094C20.2429 28.6094 17.1992 30.1811 17.1992 32.12C17.1992 34.0588 20.2429 35.6306 23.9975 35.6306Z" fill="#8E1112" />
  </g>
  <path fill-rule="evenodd" clip-rule="evenodd" d="M19.0636 15.3406C18.6874 15.4428 18.3487 15.6517 18.0885 15.9421C17.8283 16.2325 17.6577 16.592 17.5972 16.9771C17.3585 16.668 17.0354 16.4346 16.6669 16.305C16.2985 16.1754 15.9004 16.1552 15.5207 16.2469C15.2856 16.3027 15.0642 16.4055 14.8697 16.5489C14.6752 16.6923 14.5115 16.8734 14.3886 17.0815C14.2657 17.2895 14.186 17.5203 14.1542 17.7598C14.1225 17.9994 14.1394 18.2429 14.2039 18.4758C14.5558 19.8542 16.3361 20.5728 18.8964 22.0979C20.4215 19.5258 21.6357 18.0388 21.2838 16.6575C21.2279 16.4223 21.1252 16.2009 20.9818 16.0064C20.8384 15.8119 20.6572 15.6483 20.4491 15.5253C20.2411 15.4024 20.0104 15.3227 19.7708 15.291C19.5312 15.2592 19.2877 15.2761 19.0548 15.3406H19.0636Z" fill="url(#paint1_linear_4523_4227)" />
  <path fill-rule="evenodd" clip-rule="evenodd" d="M28.7521 15.3406C28.5194 15.2761 28.2761 15.2592 28.0367 15.291C27.7973 15.3228 27.5668 15.4025 27.359 15.5255C27.1511 15.6484 26.9702 15.812 26.8271 16.0065C26.684 16.201 26.5816 16.4224 26.5261 16.6574C26.1741 18.0388 27.3883 19.5257 28.9105 22.0978C31.4855 20.5727 33.2657 19.8542 33.6177 18.4758C33.6817 18.2427 33.6982 17.9991 33.666 17.7595C33.6339 17.5199 33.5539 17.2892 33.4308 17.0812C33.3076 16.8732 33.1438 16.6922 32.9492 16.5488C32.7546 16.4054 32.5331 16.3027 32.2979 16.2468C31.9187 16.155 31.521 16.1752 31.153 16.3048C30.7849 16.4344 30.4624 16.6679 30.2244 16.9771C30.1639 16.5919 29.9933 16.2324 29.7331 15.9421C29.4729 15.6517 29.1342 15.4428 28.758 15.3406H28.7521Z" fill="url(#paint2_linear_4523_4227)" />
  <defs>
    <linearGradient id="paint0_linear_4523_4227" x1="11.7505" y1="31.0726" x2="36.2514" y2="16.9276" gradientUnits="userSpaceOnUse">
      <stop stop-color="#EBB34D" />
      <stop offset="0.03" stop-color="#ECB64D" />
      <stop offset="0.18" stop-color="#EEC04F" />
      <stop offset="0.55" stop-color="#F1CC51" />
      <stop offset="1" stop-color="#F3D652" />
    </linearGradient>
    <linearGradient id="paint1_linear_4523_4227" x1="14.5667" y1="19.8443" x2="21.658" y2="18.0275" gradientUnits="userSpaceOnUse">
      <stop stop-color="#D2254D" />
      <stop offset="1" stop-color="#D65C4E" />
    </linearGradient>
    <linearGradient id="paint2_linear_4523_4227" x1="34.6808" y1="21.4478" x2="27.5801" y2="19.6177" gradientUnits="userSpaceOnUse">
      <stop stop-color="#D2254D" />
      <stop offset="1" stop-color="#D65C4E" />
    </linearGradient>
  </defs>
</svg>