<svg width="48" height="48" viewBox="0 0 48 48" fill="none" xmlns="http://www.w3.org/2000/svg">
  <rect width="48" height="48" rx="12" fill="#EDEDED" fill-opacity="0.4" />
  <path d="M37.7739 26.2261C39.0033 18.619 33.8332 11.4555 26.2261 10.2261C18.619 8.99668 11.4555 14.1668 10.2261 21.7739C8.99665 29.3811 14.1668 36.5445 21.7739 37.7739C29.381 39.0034 36.5445 33.8332 37.7739 26.2261Z" fill="url(#paint0_linear_4523_4216)" />
  <path d="M18.9167 25.5733C22.2154 24.8636 25.6273 24.8636 28.9259 25.5733C28.9259 25.5733 29.099 32.0105 23.9199 32.0105C18.7407 32.0105 18.9167 25.5733 18.9167 25.5733Z" fill="#5B0600" />
  <mask id="mask0_4523_4216" style="mask-type:luminance" maskUnits="userSpaceOnUse" x="18" y="25" width="11" height="8">
    <path d="M18.9109 25.5723C22.2095 24.8626 25.6214 24.8626 28.9201 25.5723C28.9201 25.5723 29.0932 32.0095 23.914 32.0095C18.7349 32.0095 18.9109 25.5723 18.9109 25.5723Z" fill="white" />
  </mask>
  <g mask="url(#mask0_4523_4216)">
    <path d="M25.2235 35.7819C26.9879 35.0571 27.8307 33.0393 27.106 31.2749C26.3813 29.5105 24.3634 28.6677 22.599 29.3924C20.8346 30.1171 19.9918 32.1349 20.7165 33.8993C21.4412 35.6637 23.4591 36.5066 25.2235 35.7819Z" fill="#8E1112" />
  </g>
  <path fill-rule="evenodd" clip-rule="evenodd" d="M18.3637 18.0719C19.4288 18.0734 20.1308 18.5111 20.557 18.9914C20.7628 19.2234 20.8958 19.4549 20.9782 19.6304C21.0197 19.7187 21.0493 19.7947 21.0695 19.8523C21.0796 19.8812 21.0875 19.9057 21.0933 19.925C21.0962 19.9347 21.0987 19.9431 21.1006 19.9501L21.1033 19.9596L21.1043 19.9636L21.1048 19.9654L21.105 19.9663C21.1052 19.9667 21.1053 19.9671 20.4073 20.1493L21.1053 19.9671C21.2059 20.3525 20.975 20.7466 20.5896 20.8473C20.2076 20.947 19.8171 20.7212 19.7122 20.3419C19.7116 20.3399 19.7102 20.3357 19.708 20.3296C19.7022 20.3129 19.6908 20.2828 19.6724 20.2437C19.6352 20.1645 19.5732 20.0564 19.4779 19.949C19.3034 19.7523 18.9819 19.5135 18.3542 19.5146C18.346 19.5146 18.3379 19.5145 18.3297 19.5142C18.0377 19.5048 17.7499 19.5861 17.506 19.7469C17.2621 19.9077 17.0739 20.1401 16.9675 20.4122C16.8223 20.7832 16.4039 20.9662 16.0329 20.8211C15.6619 20.6759 15.4788 20.2575 15.624 19.8865C15.8391 19.3368 16.2192 18.8672 16.712 18.5423C17.2014 18.2198 17.778 18.0556 18.3637 18.0719ZM28.6151 18.072C29.6804 18.0733 30.3826 18.5111 30.8089 18.9915C31.0147 19.2235 31.1476 19.4549 31.2301 19.6304C31.2716 19.7187 31.3011 19.7948 31.3213 19.8524C31.3315 19.8813 31.3393 19.9057 31.3452 19.9251C31.3481 19.9347 31.3505 19.9431 31.3525 19.9502L31.3551 19.9597L31.3562 19.9637L31.3567 19.9655L31.3569 19.9663C31.357 19.9667 31.3571 19.9671 30.6592 20.1494L31.3571 19.9671C31.4578 20.3526 31.2269 20.7467 30.8415 20.8473C30.4594 20.9471 30.069 20.7212 29.964 20.3419C29.9634 20.3399 29.962 20.3358 29.9599 20.3296C29.954 20.3129 29.9426 20.2828 29.9243 20.2438C29.8871 20.1646 29.8251 20.0564 29.7298 19.949C29.5553 19.7524 29.2337 19.5136 28.6061 19.5146C28.5982 19.5146 28.5904 19.5145 28.5825 19.5143C28.2908 19.5053 28.0035 19.5867 27.76 19.7475C27.5164 19.9083 27.3286 20.1405 27.2222 20.4122C27.0771 20.7832 26.6586 20.9663 26.2876 20.8211C25.9167 20.676 25.7336 20.2575 25.8787 19.8866C26.0936 19.3375 26.4731 18.8683 26.9652 18.5435C27.4539 18.2209 28.0299 18.0563 28.6151 18.072Z" fill="black" />
  <defs>
    <linearGradient id="paint0_linear_4523_4216" x1="11.9006" y1="30.9566" x2="36.0976" y2="17.0436" gradientUnits="userSpaceOnUse">
      <stop stop-color="#EBB34D" />
      <stop offset="0.03" stop-color="#ECB64D" />
      <stop offset="0.18" stop-color="#EEC04F" />
      <stop offset="0.55" stop-color="#F1CC51" />
      <stop offset="1" stop-color="#F3D652" />
    </linearGradient>
  </defs>
</svg>