<svg width="48" height="48" viewBox="0 0 48 48" fill="none" xmlns="http://www.w3.org/2000/svg">
  <rect width="48" height="48" rx="12" fill="#EDEDED" fill-opacity="0.4" />
  <path d="M24 38C31.732 38 38 31.732 38 24C38 16.268 31.732 10 24 10C16.268 10 10 16.268 10 24C10 31.732 16.268 38 24 38Z" fill="url(#paint0_linear_4523_4209)" />
  <path fill-rule="evenodd" clip-rule="evenodd" d="M18.4071 18.0044C19.479 18.0058 20.1859 18.4463 20.6154 18.9291C20.8229 19.1623 20.957 19.395 21.0403 19.5715C21.0822 19.6603 21.1121 19.7368 21.1326 19.7947C21.1428 19.8238 21.1507 19.8484 21.1566 19.8678C21.1596 19.8775 21.1621 19.8859 21.1641 19.893L21.1668 19.9026L21.1678 19.9066L21.1683 19.9084L21.1685 19.9093C21.1687 19.9097 21.1688 19.9101 20.4668 20.0949L21.1688 19.9101C21.2708 20.2977 21.0393 20.6947 20.6516 20.7968C20.2674 20.8979 19.874 20.6714 19.7677 20.29C19.7671 20.288 19.7657 20.2837 19.7635 20.2775C19.7576 20.2607 19.746 20.2303 19.7274 20.191C19.6898 20.1111 19.627 20.0022 19.5307 19.8939C19.3542 19.6954 19.0297 19.4551 18.398 19.4561C18.3901 19.4561 18.3822 19.456 18.3743 19.4558C18.0808 19.4467 17.7917 19.5287 17.5466 19.6905C17.3015 19.8522 17.1125 20.0859 17.0055 20.3594C16.8594 20.7327 16.4384 20.9169 16.0651 20.7708C15.6918 20.6247 15.5075 20.2037 15.6536 19.8304C15.8698 19.2779 16.2517 18.8058 16.7468 18.4789C17.2386 18.1543 17.8182 17.9887 18.4071 18.0044Z" fill="black" />
  <path fill-rule="evenodd" clip-rule="evenodd" d="M28.7269 18.004C29.7986 18.0055 30.505 18.446 30.9338 18.9293C31.141 19.1628 31.2747 19.3956 31.3577 19.5722C31.3994 19.6611 31.4292 19.7376 31.4495 19.7956C31.4597 19.8247 31.4676 19.8493 31.4735 19.8687C31.4764 19.8784 31.4789 19.8869 31.4809 19.894L31.4835 19.9036L31.4846 19.9076L31.4851 19.9094L31.4853 19.9102C31.4854 19.9107 31.4855 19.9111 30.7832 20.0945L31.4855 19.9111C31.5868 20.2989 31.3545 20.6955 30.9666 20.7968C30.5823 20.8971 30.1893 20.6699 30.0837 20.2882C30.0831 20.2862 30.0818 20.282 30.0796 20.2758C30.0737 20.259 30.0622 20.2287 30.0438 20.1894C30.0063 20.1097 29.9439 20.0009 29.848 19.8928C29.6724 19.6949 29.3489 19.4547 28.7173 19.4557C28.7091 19.4557 28.7008 19.4556 28.6926 19.4554C28.3988 19.4459 28.1092 19.5277 27.8638 19.6895C27.6183 19.8513 27.429 20.0851 27.3219 20.3589C27.1758 20.7322 26.7548 20.9165 26.3815 20.7704C26.0082 20.6244 25.824 20.2033 25.97 19.83C26.1864 19.2769 26.5689 18.8043 27.0648 18.4774C27.5572 18.1528 28.1375 17.9876 28.7269 18.004Z" fill="black" />
  <path fill-rule="evenodd" clip-rule="evenodd" d="M19.8711 26.9844C19.8711 26.4232 20.3217 25.9683 20.8776 25.9683H26.4133C26.9692 25.9683 27.4198 26.4232 27.4198 26.9844C27.4198 27.5457 26.9692 28.0006 26.4133 28.0006H20.8776C20.3217 28.0006 19.8711 27.5457 19.8711 26.9844Z" fill="#35220B" />
  <defs>
    <linearGradient id="paint0_linear_4523_4209" x1="11.8727" y1="31.0029" x2="36.1273" y2="17" gradientUnits="userSpaceOnUse">
      <stop stop-color="#EBB34D" />
      <stop offset="0.03" stop-color="#ECB64D" />
      <stop offset="0.18" stop-color="#EEC04F" />
      <stop offset="0.55" stop-color="#F1CC51" />
      <stop offset="1" stop-color="#F3D652" />
    </linearGradient>
  </defs>
</svg>