<svg width="100" height="100" viewBox="0 0 100 100" fill="none" xmlns="http://www.w3.org/2000/svg">
<rect width="100" height="100" fill="white"/>
<circle cx="50" cy="50" r="35" fill="#EDEDED"/>
<path d="M39.4105 45.2561L47.4126 32.127C47.7001 31.6478 48.0746 31.2884 48.5361 31.0488C48.9977 30.8092 49.4848 30.6895 49.9976 30.6895C50.5104 30.6895 50.9984 30.8092 51.4616 31.0488C51.9248 31.2884 52.3001 31.6478 52.5876 32.127L60.5897 45.2561C60.9092 45.7553 61.0689 46.2793 61.0689 46.8284C61.0689 47.3774 60.9411 47.8756 60.6855 48.3228C60.43 48.77 60.077 49.1374 59.6266 49.4249C59.1762 49.7124 58.6507 49.8561 58.0501 49.8561H41.9501C41.3478 49.8561 40.8207 49.7156 40.3689 49.4345C39.9171 49.1533 39.5657 48.7828 39.3147 48.3228C39.0592 47.8776 38.9314 47.383 38.9314 46.8389C38.9314 46.2948 39.0911 45.7672 39.4105 45.2561ZM61.875 72.0895C59.0376 72.0895 56.6206 71.0964 54.6241 69.1101C52.6276 67.124 51.6293 64.7122 51.6293 61.8748C51.6293 59.0374 52.6257 56.6204 54.6184 54.6238C56.6112 52.6273 59.031 51.629 61.8778 51.629C64.7246 51.629 67.1383 52.6254 69.1189 54.6182C71.0994 56.611 72.0897 59.0308 72.0897 61.8776C72.0897 64.7244 71.0966 67.1381 69.1104 69.1186C67.1242 71.0992 64.7124 72.0895 61.875 72.0895ZM29.0605 68.1124V55.6061C29.0605 54.7756 29.356 54.0648 29.947 53.4738C30.538 52.8829 31.2487 52.5874 32.0793 52.5874H44.6335C45.464 52.5874 46.1748 52.8829 46.7658 53.4738C47.3567 54.0648 47.6522 54.7756 47.6522 55.6061V68.1124C47.6522 68.9429 47.3567 69.6537 46.7658 70.2447C46.1748 70.8356 45.464 71.1311 44.6335 71.1311H32.0793C31.2487 71.1311 30.538 70.8356 29.947 70.2447C29.356 69.6537 29.0605 68.9429 29.0605 68.1124Z" fill="white"/>
</svg>
