<svg width="100" height="100" viewBox="0 0 100 100" fill="none" xmlns="http://www.w3.org/2000/svg">
<rect width="100" height="100" fill="white"/>
<circle cx="50" cy="50" r="35" fill="#EDEDED"/>
<path d="M55.2085 71.9168C54.3404 71.9168 53.6026 71.613 52.995 71.0054C52.3873 70.3977 52.0835 69.6599 52.0835 68.7918V54.2085C52.0835 53.3404 52.3873 52.6026 52.995 51.995C53.6026 51.3873 54.3404 51.0835 55.2085 51.0835H69.7918C70.6599 51.0835 71.3977 51.3873 72.0054 51.995C72.613 52.6026 72.9168 53.3404 72.9168 54.2085V68.7918C72.9168 69.6599 72.613 70.3977 72.0054 71.0054C71.3977 71.613 70.6599 71.9168 69.7918 71.9168H55.2085ZM55.2085 68.7918H69.7918V67.1252C68.9238 66.0488 67.8647 65.1894 66.6147 64.547C65.3647 63.9047 63.9932 63.5835 62.5002 63.5835C61.0071 63.5835 59.6356 63.9047 58.3856 64.547C57.1356 65.1894 56.0766 66.0488 55.2085 67.1252V68.7918ZM62.5002 61.5002C63.3682 61.5002 64.1061 61.1963 64.7137 60.5887C65.3213 59.9811 65.6252 59.2432 65.6252 58.3752C65.6252 57.5071 65.3213 56.7693 64.7137 56.1616C64.1061 55.554 63.3682 55.2502 62.5002 55.2502C61.6321 55.2502 60.8943 55.554 60.2866 56.1616C59.679 56.7693 59.3752 57.5071 59.3752 58.3752C59.3752 59.2432 59.679 59.9811 60.2866 60.5887C60.8943 61.1963 61.6321 61.5002 62.5002 61.5002Z" fill="white"/>
<path fill-rule="evenodd" clip-rule="evenodd" d="M34.7519 44.1874C33.0804 44.3519 31.4443 44.7741 29.9018 45.4394C29.4514 45.636 29.1619 46.0826 29.1666 46.574V51.4501C29.1708 51.9321 29.458 52.3667 29.8991 52.5602C31.4416 53.2255 33.0777 53.6477 34.7496 53.8122L35.8108 56.3778C34.7449 57.676 33.8876 59.1319 33.2691 60.6933C33.0926 61.1458 33.2003 61.6603 33.5435 62.0038L36.9922 65.4519C37.3363 65.7963 37.8521 65.904 38.3056 65.7262C39.8668 65.1071 41.323 64.2499 42.6218 63.185L45.1827 64.246C45.3477 65.919 45.773 67.556 46.4423 69.0982C46.6367 69.5434 47.0765 69.8319 47.5625 69.8332H47.9165V55.9895C44.9045 55.0931 42.7082 52.303 42.7082 48.9998C42.7082 44.9728 45.9728 41.7082 49.9998 41.7082C53.303 41.7082 56.0931 43.9045 56.9895 46.9165H70.8332V46.5616C70.8332 46.0748 70.5442 45.6343 70.0981 45.4394C68.5551 44.775 66.9191 44.3528 65.2476 44.1874L64.1864 41.6218C65.2523 40.3237 66.1096 38.8677 66.728 37.3064C66.9045 36.8539 66.7968 36.3394 66.4536 35.9959L63.0049 32.5478C62.6587 32.2068 62.1454 32.0995 61.6915 32.2734C60.1303 32.8926 58.6746 33.7498 57.3758 34.8146L54.8144 33.7536C54.6494 32.0807 54.2242 30.4437 53.5549 28.9015C53.3604 28.4562 52.9206 28.1678 52.4347 28.1665H47.5624C47.0765 28.1678 46.6367 28.4562 46.4423 28.9015C45.7729 30.4436 45.3473 32.0807 45.1823 33.7536L42.6214 34.8146C41.3225 33.7498 39.8669 32.8926 38.3056 32.2734C37.8521 32.0957 37.3363 32.2034 36.9922 32.5478L33.5461 35.9959C33.2025 36.3394 33.0948 36.8539 33.2718 37.3064C33.8898 38.8677 34.7476 40.3237 35.8131 41.6218L34.7519 44.1874ZM53.6091 46.9165C52.8886 45.6711 51.5421 44.8332 49.9998 44.8332C47.6987 44.8332 45.8332 46.6987 45.8332 48.9998C45.8332 50.5421 46.6711 51.8886 47.9165 52.6091V48.9165C47.9165 47.8119 48.8119 46.9165 49.9165 46.9165H53.6091Z" fill="white"/>
</svg>
